<svg xmlns="http://www.w3.org/2000/svg" xmlns:xlink="http://www.w3.org/1999/xlink" fill="none" version="1.1" width="2090" height="1306" viewBox="0 0 2090 1306"><defs><clipPath id="master_svg0_1023_179642/258_78258"><rect x="0" y="0" width="2090" height="1306" rx="0"/></clipPath><linearGradient x1="0.4851420223712921" y1="-0.5745664834976196" x2="0.5053945779800415" y2="1.3632348775863647" id="master_svg1_1237_84395"><stop offset="0%" stop-color="#CB0B0B" stop-opacity="0.2199999988079071"/><stop offset="64.03506994247437%" stop-color="#7C0000" stop-opacity="0.09040148556232452"/><stop offset="64.23344612121582%" stop-color="#7C0000" stop-opacity="0.09000000357627869"/><stop offset="64.23344612121582%" stop-color="#7E0000" stop-opacity="0.09229086339473724"/><stop offset="100%" stop-color="#000000" stop-opacity="0"/></linearGradient><mask id="master_svg2_1175_007586/1175_007529" style="mask-type:alpha" maskUnits="userSpaceOnUse"><g><rect x="745" y="200" width="600" height="500" rx="0" fill="#FFFFFF" fill-opacity="1"/></g></mask><linearGradient x1="0.3760664165019989" y1="0.10024383664131165" x2="-0.06472408026456833" y2="1.1316392421722412" id="master_svg3_1175_008843"><stop offset="0%" stop-color="#FF4747" stop-opacity="0"/><stop offset="75.04826784133911%" stop-color="#FF0707" stop-opacity="0.12999999523162842"/><stop offset="90.69545865058899%" stop-color="#DD0606" stop-opacity="0.11257973313331604"/><stop offset="90.9178078174591%" stop-color="#FB0707" stop-opacity="0.12777487933635712"/></linearGradient><linearGradient x1="0" y1="1" x2="0.5668311715126038" y2="0.10421733558177948" id="master_svg4_1175_001604"><stop offset="0%" stop-color="#FF6161" stop-opacity="0"/><stop offset="75.04826784133911%" stop-color="#FF0707" stop-opacity="0.12999999523162842"/><stop offset="90.69545865058899%" stop-color="#DD0606" stop-opacity="0.11257973313331604"/><stop offset="90.9178078174591%" stop-color="#FB0707" stop-opacity="0.12777487933635712"/></linearGradient><linearGradient x1="0.9088039398193359" y1="0.1497170776128769" x2="0.08142606168985367" y2="0.1497170776128769" id="master_svg5_1175_008785"><stop offset="57.61686563491821%" stop-color="#FF4545" stop-opacity="0.05999999865889549"/><stop offset="100%" stop-color="#FF1414" stop-opacity="0"/></linearGradient><linearGradient x1="0.9088039398193359" y1="0.1497170776128769" x2="0.08142606168985367" y2="0.1497170776128769" id="master_svg6_1175_008877"><stop offset="57.61686563491821%" stop-color="#FF4545" stop-opacity="0.05999999865889549"/><stop offset="100%" stop-color="#FF0505" stop-opacity="0"/></linearGradient><linearGradient x1="0" y1="0.08618233352899551" x2="0.68072509765625" y2="0.7570314407348633" id="master_svg7_1175_005771"><stop offset="7.663527876138687%" stop-color="#FF3C3C" stop-opacity="0.699999988079071"/><stop offset="90.91780185699463%" stop-color="#FB0707" stop-opacity="0"/></linearGradient><radialGradient cx="0" cy="0" r="1" gradientUnits="userSpaceOnUse" id="master_svg8_1175_77991" gradientTransform="translate(1049.5516204833984 446.3909149169922) rotate(118.32591650956596) scale(65.27946613490279 65.49357591955969)"><stop offset="0%" stop-color="#D92E2E" stop-opacity="0.44999998807907104"/><stop offset="100%" stop-color="#FF4040" stop-opacity="0"/></radialGradient><radialGradient cx="0" cy="0" r="1" gradientUnits="userSpaceOnUse" id="master_svg9_1175_80378" gradientTransform="translate(1049.5515823364258 446.39093017578125) rotate(118.32591707365577) scale(102.12431346257507 102.45927288728912)"><stop offset="0.009680853690952063%" stop-color="#FF0606" stop-opacity="0.2199999988079071"/><stop offset="0.13414594577625394%" stop-color="#FF4040" stop-opacity="0"/></radialGradient><filter id="master_svga_1175_007586/1175_007583" filterUnits="objectBoundingBox" color-interpolation-filters="sRGB" x="-195.1999969482422" y="-195.1999969482422" width="398.3999938964844" height="398.3738398551941"><feFlood flood-opacity="0" result="BackgroundImageFix"/><feBlend mode="normal" in="SourceGraphic" in2="BackgroundImageFix" result="shape"/><feGaussianBlur stdDeviation="48.79999923706055" result="effect1_foregroundBlur"/></filter><filter id="master_svgb_1175_007586/1175_007582" filterUnits="objectBoundingBox" color-interpolation-filters="sRGB" x="-19.19999885559082" y="-19.19999885559082" width="46.39999771118164" height="46.37384366989136"><feFlood flood-opacity="0" result="BackgroundImageFix"/><feBlend mode="normal" in="SourceGraphic" in2="BackgroundImageFix" result="shape"/><feGaussianBlur stdDeviation="4.799999713897705" result="effect1_foregroundBlur"/></filter><filter id="master_svgc_1175_007586/1175_007550" filterUnits="objectBoundingBox" color-interpolation-filters="sRGB" x="-195.1999969482422" y="-195.1999969482422" width="398.3999938964844" height="398.3738398551941"><feFlood flood-opacity="0" result="BackgroundImageFix"/><feBlend mode="normal" in="SourceGraphic" in2="BackgroundImageFix" result="shape"/><feGaussianBlur stdDeviation="48.79999923706055" result="effect1_foregroundBlur"/></filter><filter id="master_svgd_1175_007586/1175_007549" filterUnits="objectBoundingBox" color-interpolation-filters="sRGB" x="-19.19999885559082" y="-19.19999885559082" width="46.39999771118164" height="46.37384366989136"><feFlood flood-opacity="0" result="BackgroundImageFix"/><feBlend mode="normal" in="SourceGraphic" in2="BackgroundImageFix" result="shape"/><feGaussianBlur stdDeviation="4.799999713897705" result="effect1_foregroundBlur"/></filter><filter id="master_svge_1175_007586/1175_007538" filterUnits="objectBoundingBox" color-interpolation-filters="sRGB" x="-195.1999969482422" y="-195.1999969482422" width="395.99999380111694" height="395.98168659210205"><feFlood flood-opacity="0" result="BackgroundImageFix"/><feBlend mode="normal" in="SourceGraphic" in2="BackgroundImageFix" result="shape"/><feGaussianBlur stdDeviation="48.79999923706055" result="effect1_foregroundBlur"/></filter><filter id="master_svgf_1175_007586/1175_007539" filterUnits="objectBoundingBox" color-interpolation-filters="sRGB" x="-19.19999885559082" y="-19.19999885559082" width="43.99999761581421" height="43.981690406799316"><feFlood flood-opacity="0" result="BackgroundImageFix"/><feBlend mode="normal" in="SourceGraphic" in2="BackgroundImageFix" result="shape"/><feGaussianBlur stdDeviation="4.799999713897705" result="effect1_foregroundBlur"/></filter><filter id="master_svgg_1175_007586/1175_007559" filterUnits="objectBoundingBox" color-interpolation-filters="sRGB" x="-195.1999969482422" y="-195.1999969482422" width="395.99999380111694" height="395.98168659210205"><feFlood flood-opacity="0" result="BackgroundImageFix"/><feBlend mode="normal" in="SourceGraphic" in2="BackgroundImageFix" result="shape"/><feGaussianBlur stdDeviation="48.79999923706055" result="effect1_foregroundBlur"/></filter><filter id="master_svgh_1175_007586/1175_007561" filterUnits="objectBoundingBox" color-interpolation-filters="sRGB" x="-19.19999885559082" y="-19.19999885559082" width="43.99999761581421" height="43.981690406799316"><feFlood flood-opacity="0" result="BackgroundImageFix"/><feBlend mode="normal" in="SourceGraphic" in2="BackgroundImageFix" result="shape"/><feGaussianBlur stdDeviation="4.799999713897705" result="effect1_foregroundBlur"/></filter><filter id="master_svgi_1175_007586/1175_007569" filterUnits="objectBoundingBox" color-interpolation-filters="sRGB" x="-195.1999969482422" y="-195.1999969482422" width="395.1999936103821" height="395.18430185317993"><feFlood flood-opacity="0" result="BackgroundImageFix"/><feBlend mode="normal" in="SourceGraphic" in2="BackgroundImageFix" result="shape"/><feGaussianBlur stdDeviation="48.79999923706055" result="effect1_foregroundBlur"/></filter><filter id="master_svgj_1175_007586/1175_007568" filterUnits="objectBoundingBox" color-interpolation-filters="sRGB" x="-19.19999885559082" y="-19.19999885559082" width="43.199997425079346" height="43.1843056678772"><feFlood flood-opacity="0" result="BackgroundImageFix"/><feBlend mode="normal" in="SourceGraphic" in2="BackgroundImageFix" result="shape"/><feGaussianBlur stdDeviation="4.799999713897705" result="effect1_foregroundBlur"/></filter><filter id="master_svgk_1175_007586/1175_007555" filterUnits="objectBoundingBox" color-interpolation-filters="sRGB" x="-195.1999969482422" y="-195.1999969482422" width="395.99999380111694" height="395.98168659210205"><feFlood flood-opacity="0" result="BackgroundImageFix"/><feBlend mode="normal" in="SourceGraphic" in2="BackgroundImageFix" result="shape"/><feGaussianBlur stdDeviation="48.79999923706055" result="effect1_foregroundBlur"/></filter><filter id="master_svgl_1175_007586/1175_007553" filterUnits="objectBoundingBox" color-interpolation-filters="sRGB" x="-19.19999885559082" y="-19.19999885559082" width="43.99999761581421" height="43.981690406799316"><feFlood flood-opacity="0" result="BackgroundImageFix"/><feBlend mode="normal" in="SourceGraphic" in2="BackgroundImageFix" result="shape"/><feGaussianBlur stdDeviation="4.799999713897705" result="effect1_foregroundBlur"/></filter><linearGradient x1="-0.0328204482793808" y1="0.9286206960678101" x2="0.6023830771446228" y2="-0.04934796318411827" id="master_svgm_1175_008735"><stop offset="0%" stop-color="#FF1E1E" stop-opacity="0"/><stop offset="75.04826784133911%" stop-color="#FF0707" stop-opacity="0.12999999523162842"/><stop offset="90.69545865058899%" stop-color="#DD0606" stop-opacity="0.11257973313331604"/><stop offset="90.9178078174591%" stop-color="#FB0707" stop-opacity="0.12777487933635712"/></linearGradient><linearGradient x1="0.47131699323654175" y1="0.044865865260362625" x2="0" y2="1.1512295007705688" id="master_svgn_1175_008823"><stop offset="0%" stop-color="#FF3636" stop-opacity="0"/><stop offset="75.04826784133911%" stop-color="#FF0707" stop-opacity="0.12999999523162842"/><stop offset="90.69545865058899%" stop-color="#DD0606" stop-opacity="0.11257973313331604"/><stop offset="90.9178078174591%" stop-color="#FB0707" stop-opacity="0.12777487933635712"/></linearGradient><filter id="master_svgo_1175_007586/1175_007566" filterUnits="objectBoundingBox" color-interpolation-filters="sRGB" x="-195.1999969482422" y="-195.1999969482422" width="399.9999933242798" height="399.9686098098755"><feFlood flood-opacity="0" result="BackgroundImageFix"/><feBlend mode="normal" in="SourceGraphic" in2="BackgroundImageFix" result="shape"/><feGaussianBlur stdDeviation="48.79999923706055" result="effect1_foregroundBlur"/></filter><filter id="master_svgp_1175_007586/1175_007564" filterUnits="objectBoundingBox" color-interpolation-filters="sRGB" x="-19.19999885559082" y="-19.19999885559082" width="47.99999713897705" height="47.968613624572754"><feFlood flood-opacity="0" result="BackgroundImageFix"/><feBlend mode="normal" in="SourceGraphic" in2="BackgroundImageFix" result="shape"/><feGaussianBlur stdDeviation="4.799999713897705" result="effect1_foregroundBlur"/></filter><filter id="master_svgq_1175_007586/1175_007533" filterUnits="objectBoundingBox" color-interpolation-filters="sRGB" x="-195.1999969482422" y="-195.1999969482422" width="399.9999933242798" height="399.9686098098755"><feFlood flood-opacity="0" result="BackgroundImageFix"/><feBlend mode="normal" in="SourceGraphic" in2="BackgroundImageFix" result="shape"/><feGaussianBlur stdDeviation="48.79999923706055" result="effect1_foregroundBlur"/></filter><filter id="master_svgr_1175_007586/1175_007534" filterUnits="objectBoundingBox" color-interpolation-filters="sRGB" x="-19.19999885559082" y="-19.19999885559082" width="47.99999713897705" height="47.968613624572754"><feFlood flood-opacity="0" result="BackgroundImageFix"/><feBlend mode="normal" in="SourceGraphic" in2="BackgroundImageFix" result="shape"/><feGaussianBlur stdDeviation="4.799999713897705" result="effect1_foregroundBlur"/></filter><linearGradient x1="0.3760664165019989" y1="0.10024383664131165" x2="-0.06472408026456833" y2="1.1316392421722412" id="master_svgs_1175_008843"><stop offset="0%" stop-color="#FF4747" stop-opacity="0"/><stop offset="75.04826784133911%" stop-color="#FF0707" stop-opacity="0.12999999523162842"/><stop offset="90.69545865058899%" stop-color="#DD0606" stop-opacity="0.11257973313331604"/><stop offset="90.9178078174591%" stop-color="#FB0707" stop-opacity="0.12777487933635712"/></linearGradient><linearGradient x1="0" y1="1" x2="0.5668311715126038" y2="0.10421733558177948" id="master_svgt_1175_001604"><stop offset="0%" stop-color="#FF6161" stop-opacity="0"/><stop offset="75.04826784133911%" stop-color="#FF0707" stop-opacity="0.12999999523162842"/><stop offset="90.69545865058899%" stop-color="#DD0606" stop-opacity="0.11257973313331604"/><stop offset="90.9178078174591%" stop-color="#FB0707" stop-opacity="0.12777487933635712"/></linearGradient><linearGradient x1="0.9088039398193359" y1="0.1497170776128769" x2="0.08142606168985367" y2="0.1497170776128769" id="master_svgu_1175_008785"><stop offset="57.61686563491821%" stop-color="#FF4545" stop-opacity="0.05999999865889549"/><stop offset="100%" stop-color="#FF1414" stop-opacity="0"/></linearGradient><linearGradient x1="0.9088039398193359" y1="0.1497170776128769" x2="0.08142606168985367" y2="0.1497170776128769" id="master_svgv_1175_008877"><stop offset="57.61686563491821%" stop-color="#FF4545" stop-opacity="0.05999999865889549"/><stop offset="100%" stop-color="#FF0505" stop-opacity="0"/></linearGradient><linearGradient x1="0" y1="0.08618233352899551" x2="0.68072509765625" y2="0.7570314407348633" id="master_svgw_1175_005771"><stop offset="7.663527876138687%" stop-color="#FF3C3C" stop-opacity="0.699999988079071"/><stop offset="90.91780185699463%" stop-color="#FB0707" stop-opacity="0"/></linearGradient><radialGradient cx="0" cy="0" r="1" gradientUnits="userSpaceOnUse" id="master_svgx_1175_77991" gradientTransform="translate(1049.5516204833984 446.3909149169922) rotate(118.32591650956596) scale(65.27946613490279 65.49357591955969)"><stop offset="0%" stop-color="#D92E2E" stop-opacity="0.44999998807907104"/><stop offset="100%" stop-color="#FF4040" stop-opacity="0"/></radialGradient><radialGradient cx="0" cy="0" r="1" gradientUnits="userSpaceOnUse" id="master_svgy_1175_80378" gradientTransform="translate(1049.5515823364258 446.39093017578125) rotate(118.32591707365577) scale(102.12431346257507 102.45927288728912)"><stop offset="0.009680853690952063%" stop-color="#FF0606" stop-opacity="0.2199999988079071"/><stop offset="0.13414594577625394%" stop-color="#FF4040" stop-opacity="0"/></radialGradient><filter id="master_svgz_1175_007586/1175_008987" filterUnits="objectBoundingBox" color-interpolation-filters="sRGB" x="-195.1999969482422" y="-195.1999969482422" width="398.3999938964844" height="398.37383937835693"><feFlood flood-opacity="0" result="BackgroundImageFix"/><feBlend mode="normal" in="SourceGraphic" in2="BackgroundImageFix" result="shape"/><feGaussianBlur stdDeviation="48.79999923706055" result="effect1_foregroundBlur"/></filter><filter id="master_svg10_1175_007586/1175_008985" filterUnits="objectBoundingBox" color-interpolation-filters="sRGB" x="-19.19999885559082" y="-19.19999885559082" width="46.39999771118164" height="46.3738431930542"><feFlood flood-opacity="0" result="BackgroundImageFix"/><feBlend mode="normal" in="SourceGraphic" in2="BackgroundImageFix" result="shape"/><feGaussianBlur stdDeviation="4.799999713897705" result="effect1_foregroundBlur"/></filter><filter id="master_svg11_1175_007586/1175_008952" filterUnits="objectBoundingBox" color-interpolation-filters="sRGB" x="-195.1999969482422" y="-195.1999969482422" width="398.3999938964844" height="398.3738398551941"><feFlood flood-opacity="0" result="BackgroundImageFix"/><feBlend mode="normal" in="SourceGraphic" in2="BackgroundImageFix" result="shape"/><feGaussianBlur stdDeviation="48.79999923706055" result="effect1_foregroundBlur"/></filter><filter id="master_svg12_1175_007586/1175_008953" filterUnits="objectBoundingBox" color-interpolation-filters="sRGB" x="-19.19999885559082" y="-19.19999885559082" width="46.39999771118164" height="46.37384366989136"><feFlood flood-opacity="0" result="BackgroundImageFix"/><feBlend mode="normal" in="SourceGraphic" in2="BackgroundImageFix" result="shape"/><feGaussianBlur stdDeviation="4.799999713897705" result="effect1_foregroundBlur"/></filter><filter id="master_svg13_1175_007586/1175_008948" filterUnits="objectBoundingBox" color-interpolation-filters="sRGB" x="-195.1999969482422" y="-195.1999969482422" width="395.99999380111694" height="395.98168659210205"><feFlood flood-opacity="0" result="BackgroundImageFix"/><feBlend mode="normal" in="SourceGraphic" in2="BackgroundImageFix" result="shape"/><feGaussianBlur stdDeviation="48.79999923706055" result="effect1_foregroundBlur"/></filter><filter id="master_svg14_1175_007586/1175_008946" filterUnits="objectBoundingBox" color-interpolation-filters="sRGB" x="-19.19999885559082" y="-19.19999885559082" width="43.99999761581421" height="43.981690406799316"><feFlood flood-opacity="0" result="BackgroundImageFix"/><feBlend mode="normal" in="SourceGraphic" in2="BackgroundImageFix" result="shape"/><feGaussianBlur stdDeviation="4.799999713897705" result="effect1_foregroundBlur"/></filter><filter id="master_svg15_1175_007586/1175_008941" filterUnits="objectBoundingBox" color-interpolation-filters="sRGB" x="-195.1999969482422" y="-195.1999969482422" width="395.99999380111694" height="395.98168659210205"><feFlood flood-opacity="0" result="BackgroundImageFix"/><feBlend mode="normal" in="SourceGraphic" in2="BackgroundImageFix" result="shape"/><feGaussianBlur stdDeviation="48.79999923706055" result="effect1_foregroundBlur"/></filter><filter id="master_svg16_1175_007586/1175_008940" filterUnits="objectBoundingBox" color-interpolation-filters="sRGB" x="-19.19999885559082" y="-19.19999885559082" width="43.99999761581421" height="43.981690406799316"><feFlood flood-opacity="0" result="BackgroundImageFix"/><feBlend mode="normal" in="SourceGraphic" in2="BackgroundImageFix" result="shape"/><feGaussianBlur stdDeviation="4.799999713897705" result="effect1_foregroundBlur"/></filter><filter id="master_svg17_1175_007586/1175_008967" filterUnits="objectBoundingBox" color-interpolation-filters="sRGB" x="-195.1999969482422" y="-195.1999969482422" width="395.1999936103821" height="395.18430185317993"><feFlood flood-opacity="0" result="BackgroundImageFix"/><feBlend mode="normal" in="SourceGraphic" in2="BackgroundImageFix" result="shape"/><feGaussianBlur stdDeviation="48.79999923706055" result="effect1_foregroundBlur"/></filter><filter id="master_svg18_1175_007586/1175_008966" filterUnits="objectBoundingBox" color-interpolation-filters="sRGB" x="-19.19999885559082" y="-19.19999885559082" width="43.199997425079346" height="43.1843056678772"><feFlood flood-opacity="0" result="BackgroundImageFix"/><feBlend mode="normal" in="SourceGraphic" in2="BackgroundImageFix" result="shape"/><feGaussianBlur stdDeviation="4.799999713897705" result="effect1_foregroundBlur"/></filter><filter id="master_svg19_1175_007586/1175_008957" filterUnits="objectBoundingBox" color-interpolation-filters="sRGB" x="-195.1999969482422" y="-195.1999969482422" width="395.99999380111694" height="395.98168659210205"><feFlood flood-opacity="0" result="BackgroundImageFix"/><feBlend mode="normal" in="SourceGraphic" in2="BackgroundImageFix" result="shape"/><feGaussianBlur stdDeviation="48.79999923706055" result="effect1_foregroundBlur"/></filter><filter id="master_svg1a_1175_007586/1175_008958" filterUnits="objectBoundingBox" color-interpolation-filters="sRGB" x="-19.19999885559082" y="-19.19999885559082" width="43.99999761581421" height="43.981690406799316"><feFlood flood-opacity="0" result="BackgroundImageFix"/><feBlend mode="normal" in="SourceGraphic" in2="BackgroundImageFix" result="shape"/><feGaussianBlur stdDeviation="4.799999713897705" result="effect1_foregroundBlur"/></filter><linearGradient x1="0.47131699323654175" y1="0.044865865260362625" x2="0" y2="1.1512295007705688" id="master_svg1b_1175_008823"><stop offset="0%" stop-color="#FF3636" stop-opacity="0"/><stop offset="75.04826784133911%" stop-color="#FF0707" stop-opacity="0.12999999523162842"/><stop offset="90.69545865058899%" stop-color="#DD0606" stop-opacity="0.11257973313331604"/><stop offset="90.9178078174591%" stop-color="#FB0707" stop-opacity="0.12777487933635712"/></linearGradient><filter id="master_svg1c_1175_007586/1175_008976" filterUnits="objectBoundingBox" color-interpolation-filters="sRGB" x="-195.1999969482422" y="-195.1999969482422" width="399.9999933242798" height="399.9686098098755"><feFlood flood-opacity="0" result="BackgroundImageFix"/><feBlend mode="normal" in="SourceGraphic" in2="BackgroundImageFix" result="shape"/><feGaussianBlur stdDeviation="48.79999923706055" result="effect1_foregroundBlur"/></filter><filter id="master_svg1d_1175_007586/1175_008977" filterUnits="objectBoundingBox" color-interpolation-filters="sRGB" x="-19.19999885559082" y="-19.19999885559082" width="47.99999713897705" height="47.968613624572754"><feFlood flood-opacity="0" result="BackgroundImageFix"/><feBlend mode="normal" in="SourceGraphic" in2="BackgroundImageFix" result="shape"/><feGaussianBlur stdDeviation="4.799999713897705" result="effect1_foregroundBlur"/></filter><filter id="master_svg1e_1175_007586/1175_008961" filterUnits="objectBoundingBox" color-interpolation-filters="sRGB" x="-195.1999969482422" y="-195.1999969482422" width="399.9999933242798" height="399.9686098098755"><feFlood flood-opacity="0" result="BackgroundImageFix"/><feBlend mode="normal" in="SourceGraphic" in2="BackgroundImageFix" result="shape"/><feGaussianBlur stdDeviation="48.79999923706055" result="effect1_foregroundBlur"/></filter><filter id="master_svg1f_1175_007586/1175_008963" filterUnits="objectBoundingBox" color-interpolation-filters="sRGB" x="-19.19999885559082" y="-19.19999885559082" width="47.99999713897705" height="47.968613624572754"><feFlood flood-opacity="0" result="BackgroundImageFix"/><feBlend mode="normal" in="SourceGraphic" in2="BackgroundImageFix" result="shape"/><feGaussianBlur stdDeviation="4.799999713897705" result="effect1_foregroundBlur"/></filter><filter id="master_svg1g_1175_007586/1175_007576" filterUnits="objectBoundingBox" color-interpolation-filters="sRGB" x="-30" y="-30" width="89" height="89"><feFlood flood-opacity="0" result="BackgroundImageFix"/><feBlend mode="normal" in="SourceGraphic" in2="BackgroundImageFix" result="shape"/><feGaussianBlur stdDeviation="7.5" result="effect1_foregroundBlur"/></filter></defs><g><g><g clip-path="url(#master_svg0_1023_179642/258_78258)"><rect x="0" y="0" width="2090" height="1306" rx="0" fill="#101112" fill-opacity="1"/></g></g><g><rect x="0" y="0" width="2089" height="1306" rx="0" fill="url(#master_svg1_1237_84395)" fill-opacity="1"/></g><g><g><g><path d="M608.2,735.15L608.2,775.35L578.8,775.35L578.8,872.4L593.05,872.4L593.05,840.75L637.45,840.75L637.45,852C637.45,856.2,635.35,858.45,631.45,858.45L617.2,858L620.95,872.1L636.25,872.1C646.45,872.1,651.7,866.4,651.7,855.3L651.7,775.35L622,775.35L622,735.15L608.2,735.15ZM593.05,815.1L637.45,815.1L637.45,828.75L593.05,828.75L593.05,815.1ZM637.45,802.95L593.05,802.95L593.05,789.14999L637.45,789.14999L637.45,802.95ZM584.8,739.2L573.25,744.75C578.65,752.1,583.75,760.35,588.55,769.5L599.5,763.8C594.7,754.95,589.9,746.7,584.8,739.2ZM645.85,738.45C642.25,747.15,637.3,755.85,631.15,764.7L641.95,770.39999C648.25,761.85,653.5,753,657.4,744L645.85,738.45ZM570.1,749.25L524.95,749.25L524.95,861.75L538.9,861.75L538.9,849.15L556.15,849.15L556.15,858.15L570.1,858.15L570.1,749.25ZM538.9,835.8L538.9,762.6L556.15,762.6L556.15,835.8L538.9,835.8ZM712.05,787.5L757.5,787.5L757.5,821.25L712.05,821.25L712.05,787.5ZM697.8,821.25L674.1,821.25L674.1,835.2L715.2,835.2C703.8,845.4,689.55,854.4,672.75,862.05L682.35,874.5C699.75,866.1,714.3,856.05,726,844.5L715.5,835.2L763.35,835.2L754.8,843.45C771.3,854.7,784.05,865.2,793.2,874.8L804.15,863.85C793.65,854.4,781.05,844.8,766.05,835.2L808.5,835.2L808.5,821.25L771.9,821.25L771.9,787.5L797.55,787.5L797.55,773.7L712.05,773.7L712.05,758.25C741,755.85,767.1,752.55,790.35,748.2L783,735.9C760.95,740.85,732.6,744.6,697.8,747L697.8,821.25ZM870.35,746.55L870.35,759.15L890.6,759.15L890.6,768.75L903.95,768.75L903.95,759.15L924.8,759.15L924.8,768.75L938.3,768.75L938.3,759.15L960.35,759.15L960.35,746.55L938.3,746.55L938.3,735.45L924.8,735.45L924.8,746.55L903.95,746.55L903.95,735.45L890.6,735.45L890.6,746.55L870.35,746.55ZM913.1,844.35C921.5,856.35,934.85,866.25,952.85,874.05L962.45,862.65C946.55,857.1,934.4,850.05,926,841.65L960.65,841.65L960.65,828.75L918.95,828.75L920.75,819.9L951.2,819.9L951.2,772.35L877.4,772.35L877.4,819.9L908.15,819.9C907.55,822.9,906.8,825.9,905.9,828.75L867.05,828.75L867.05,841.65L899.6,841.65C899,842.55,898.25,843.45,897.35,844.65C891.05,852,880.55,857.7,866.15,861.75L871.1,873.45C888.5,868.35,900.65,861.45,907.55,852.75C909.5,850.2,911.3,847.35,913.1,844.35ZM857.45,800.55C860.75,805.95,864.5,812.55,868.85,820.65L876.35,809.4C869.9,800.4,863.6,792.15,857.45,784.95L857.45,776.55L872,776.55L872,763.5L857.45,763.5L857.45,735.9L843.95,735.9L843.95,763.5L827.75,763.5L827.75,776.55L843.95,776.55L843.95,777.89999C839.45,794.4,832.4,809.25,822.95,822.3L829.1,838.05C834.95,828,839.9,817.05,843.95,805.05L843.95,873L857.45,873L857.45,800.55ZM938.3,809.1L890.15,809.1L890.15,801.45L938.3,801.45L938.3,809.1ZM890.15,790.95L890.15,783.45L938.3,783.45L938.3,790.95L890.15,790.95ZM979.45,760.65L979.45,774.45L1052.05,774.45C1053.25,792.6,1055.5,808.5,1058.65,822.3C1067.65,855.45,1079.35,872.4,1093.75,873.3C1102.3,873.15,1108.75,861.9,1113.25,839.7L1100.35,833.1C1097.65,849,1095.1,857.1,1092.85,857.25C1088.65,857.25,1083.4,848.85,1077.1,832.2C1072,816.6,1068.55,797.25,1066.75,774.45L1111,774.45L1111,760.65L1090.9,760.65L1101.55,755.4C1097.35,748.2,1092.85,741.75,1088.2,735.75L1076.5,741.3C1081.15,747,1085.5,753.45,1089.4,760.65L1066,760.65C1065.55,752.55,1065.4,744.15,1065.4,735.3L1050.7,735.3C1050.7,744,1050.85,752.55,1051.3,760.65L979.45,760.65ZM981.55,796.35L981.55,809.7L1006.75,809.7L1006.75,846.9C997.3,848.4,987.7,849.75,978.1,850.95L981.4,864.45C1006.45,860.85,1030,856.35,1051.9,851.1L1051.9,837.15C1041.7,839.85,1031.35,842.25,1020.85,844.35L1020.85,809.7L1046.05,809.7L1046.05,796.35L981.55,796.35ZM1248.6,805.05L1248.6,742.05L1135.05,742.05L1135.05,755.7L1234.05,755.7L1234.05,791.4L1155.6,791.4L1155.6,770.85L1141.2,770.85L1141.2,848.85C1141.2,862.05,1147.5,868.65,1160.25,868.65L1243.05,868.65C1249.2,868.35,1254,866.55,1257.6,863.25C1260.75,859.8,1263.3,848.55,1265.1,829.65L1251.15,825.15C1250.25,840.9,1248.75,849.9,1246.35,852.15C1244.25,853.95,1241.7,854.85,1239,854.85L1164.15,854.85C1158.45,854.85,1155.6,852,1155.6,846.3L1155.6,805.05L1248.6,805.05ZM1315.7,747.45L1315.7,796.2L1328.15,796.2L1332.05,806.85L1310.45,806.85L1310.45,818.85L1324.25,818.85C1322.75,828.9,1320.95,837,1318.55,843.3C1315.55,850.2,1311.2,856.65,1305.5,862.35L1314.2,873.45C1321.4,866.55,1326.8,858.6,1330.4,849.75C1331.45,846.75,1332.5,843.3,1333.4,839.55L1348.4,839.55C1348.1,848.1,1347.65,853.65,1347.05,856.2C1346.3,858.45,1344.5,859.65,1341.65,859.8L1332.35,859.8L1335.8,871.95L1345.1,871.95C1351.4,871.65,1355.75,869.4,1358.3,865.05C1360.7,860.55,1362.05,848.25,1362.05,828L1335.8,828C1336.1,825.15,1336.55,822.15,1337,818.85L1366.1,818.85L1366.1,806.85L1345.4,806.85L1341.5,796.2L1359.65,796.2L1365.5,803.55C1367,801.45,1368.65,799.35,1370.3,797.1C1373.75,811.2,1378.1,823.8,1383.2,834.6C1377.8,845.1,1370.6,853.8,1361.75,860.55L1369.4,873C1377.65,866.25,1384.7,858,1390.55,848.4C1396.55,858.3,1403.45,866.25,1411.25,872.25L1419.5,860.25C1410.95,854.25,1403.6,845.85,1397.3,835.2C1404.5,818.4,1408.4,798.15,1409.15,774.45L1416.8,774.45L1416.8,760.95L1386.05,760.95C1388.15,753.75,1389.8,745.8,1391.15,737.4L1377.8,735C1374.95,754.8,1369.85,771.45,1362.5,784.95L1362.5,747.45L1343.75,747.45C1345.1,744.15,1346.15,740.55,1347.05,736.65L1333.1,734.7C1332.35,739.05,1331.3,743.25,1329.95,747.45L1315.7,747.45ZM1378.4,782.39999C1379.45,779.849998,1380.5,777.14999,1381.7,774.45L1396.4,774.45C1395.8,791.25,1393.55,806.25,1389.35,819.3C1384.85,808.65,1381.25,796.35,1378.4,782.39999ZM1350.05,785.85L1328,785.85L1328,777.3L1350.05,777.3L1350.05,785.85ZM1328,766.95L1328,757.65L1350.05,757.65L1350.05,766.95L1328,766.95ZM1289.9,737.25L1280.6,746.1C1290.5,753.45,1298.15,760.35,1303.55,766.95L1312.85,757.8C1306.55,750.9,1298.9,744.15,1289.9,737.25ZM1287.65,773.55L1278.05,782.7C1287.2,790.35,1294.4,797.55,1299.5,804.45L1309.1,794.85C1303.25,787.64999,1296.05,780.599998,1287.65,773.55ZM1298.45,818.4C1293.2,834.9,1287.05,850.95,1280.15,866.7L1292.45,872.1C1299.05,856.8,1305.05,840.45,1310.45,823.05L1298.45,818.4ZM1471.6,777.6L1471.6,791.25L1513.15,791.25L1513.15,810.75L1481.2,810.75L1481.2,873.45L1495.45,873.45L1495.45,866.1L1546.6,866.1L1546.6,873.3L1560.7,873.3L1560.7,810.75L1527.7,810.75L1527.7,791.25L1569.55,791.25L1569.55,777.6L1527.7,777.6L1527.7,755.7C1541.2,753.75,1553.05,750.9,1563.4,747.3L1556.35,735.3C1534.15,742.5,1506.85,746.1,1474.3,746.1L1478.8,758.85C1490.95,758.85,1502.35,758.25,1513.15,757.35L1513.15,777.6L1471.6,777.6ZM1495.45,852.75L1495.45,824.1L1546.6,824.1L1546.6,852.75L1495.45,852.75ZM1446.25,736.5L1436.5,745.65C1447.45,752.85,1456,759.6,1462,765.75L1471.75,756.15C1464.7,749.55,1456.15,742.95,1446.25,736.5ZM1442.8,772.2L1432.75,781.95C1443.85,789.89999,1452.55,797.25,1458.7,804.15L1468.6,794.25C1461.7,786.89999,1453,779.549995,1442.8,772.2ZM1457.35,812.55C1451.2,830.55,1443.85,848.1,1435.3,865.35L1449.55,871.65C1457.05,854.85,1464.1,836.85,1470.4,817.65L1457.35,812.55Z" fill="#FFFFFF" fill-opacity="1"/></g><g><path d="M900.44,928.419998L900.44,976.02L885.74,976.02L885.74,942.42L880.84,942.42L880.84,976.02L869.85,976.02L869.85,980.92L932.22,980.92L932.22,976.02L905.55,976.02L905.55,953.62L925.71,953.62L925.71,948.79L905.55,948.79L905.55,928.419998L929.28,928.419998L929.28,923.45L873.98,923.45L873.98,928.419998L900.44,928.419998ZM963.13,952.43L963.13,957.33L979.16,957.33L979.16,976.65L960.26,976.65L960.26,981.62L1004.15,981.62L1004.15,976.65L984.27,976.65L984.27,957.33L1001,957.33L1001,952.43L984.27,952.43L984.27,939.41L979.16,939.41L979.16,952.43L963.13,952.43ZM951.86,955.51L951.86,984.21L956.83,984.21L956.83,949.77C960.61,945.01,963.9,939.83,966.63,934.3L1004.08,934.3L1004.08,929.33L968.87,929.33C970.13,926.32,971.1800000000001,923.17,972.16,919.95L966.91,919.32C965.9300000000001,922.75,964.67,926.11,963.27,929.33L942.9,929.33L942.9,934.3L960.89,934.3C955.99,943.61,949.2,951.87,940.45,959.08L943.6,963.21C946.54,960.76,949.27,958.17,951.86,955.51ZM1052.28,933.04L1074.82,933.04L1074.82,928.139999L1053.96,928.139999C1054.66,925.62,1055.29,923.03,1055.85,920.23L1050.67,919.25C1048.92,929.33,1045.56,937.31,1040.59,943.26L1043.81,947.18C1047.24,943.4,1050.04,938.64,1052.28,933.04ZM1059.63,937.8L1055.57,940.32C1059.1399999999999,945.01,1061.94,949.28,1064.04,953.13L1068.24,950.26C1066.28,946.69,1063.41,942.56,1059.63,937.8ZM1032.54,919.6L1032.54,954.18L1037.65,954.18L1037.65,919.6L1032.54,919.6ZM1018.05,923.03L1018.05,951.59L1023.02,951.59L1023.02,923.03L1018.05,923.03ZM1069.08,957.68L1021.06,957.68L1021.06,977.14L1013.22,977.14L1013.22,981.69L1076.57,981.69L1076.57,977.14L1069.08,977.14L1069.08,957.68ZM1025.8899999999999,977.14L1025.8899999999999,962.3L1035.2,962.3L1035.2,977.14L1025.8899999999999,977.14ZM1040.03,977.14L1040.03,962.3L1049.83,962.3L1049.83,977.14L1040.03,977.14ZM1054.66,977.14L1054.66,962.3L1064.25,962.3L1064.25,977.14L1054.66,977.14ZM1125.33,961.53L1125.33,976.86L1106.22,976.86L1106.22,981.76L1148.99,981.76L1148.99,976.86L1130.37,976.86L1130.37,961.53L1146.4,961.53L1146.4,956.84L1109.02,956.84L1109.02,961.53L1125.33,961.53ZM1093.41,983.37C1097.47,983.37,1099.57,981.34,1099.57,977.28L1099.57,956.63C1101.6,955.72,1103.63,954.74,1105.66,953.76L1105.66,948.65C1103.7,949.7,1101.67,950.68,1099.57,951.66L1099.57,938.08L1105.38,938.08L1105.38,933.25L1099.57,933.25L1099.57,919.88L1094.3899999999999,919.88L1094.3899999999999,933.25L1085.85,933.25L1085.85,938.08L1094.3899999999999,938.08L1094.3899999999999,953.76C1091.24,954.88,1088.02,955.86,1084.73,956.7L1085.99,961.74C1088.79,960.83,1091.59,959.85,1094.3899999999999,958.8L1094.3899999999999,976.02C1094.3899999999999,977.84,1093.48,978.75,1091.66,978.75C1089.91,978.75,1088.09,978.61,1086.2,978.47L1087.25,983.37L1093.41,983.37ZM1127.22,919.04L1122.1100000000001,919.88C1123.37,922.12,1124.56,924.71,1125.68,927.509998L1108.32,927.509998L1108.32,940.74L1113.08,940.74L1113.08,932.06L1142.48,932.06L1142.48,940.74L1147.17,940.74L1147.17,927.509998L1130.72,927.509998C1129.6,924.36,1128.41,921.56,1127.22,919.04ZM1120.71,936.4C1118.05,942.42,1114.06,947.25,1108.81,950.89L1112.45,954.04C1117.7,950.4,1121.9,945.08,1125.12,938.15L1120.71,936.4ZM1134.22,936.26L1129.95,938.08C1134.15,942.56,1137.93,947.74,1141.3600000000001,953.48L1145.77,951.24C1142.41,945.78,1138.56,940.74,1134.22,936.26ZM1186.41,919.53L1186.41,932.13L1161.35,932.13L1161.35,965.03L1166.3899999999999,965.03L1166.3899999999999,960.62L1186.41,960.62L1186.41,984.49L1191.59,984.49L1191.59,960.62L1211.68,960.62L1211.68,965.03L1216.72,965.03L1216.72,932.13L1191.59,932.13L1191.59,919.53L1186.41,919.53ZM1166.3899999999999,955.72L1166.3899999999999,937.03L1186.41,937.03L1186.41,955.72L1166.3899999999999,955.72ZM1191.59,955.72L1191.59,937.03L1211.68,937.03L1211.68,955.72L1191.59,955.72Z" fill="#FFFFFF" fill-opacity="0.30000001192092896"/></g></g><g mask="url(#master_svg2_1175_007586/1175_007529)"><g><g><path d="M1049.0478578125,447.582421875L1099.8477578125,357.876636875L1098.4557578125,357.088206875L1047.6556578125,446.794021875L1049.0478578125,447.582421875ZM1058.7517578125,447.988221875L1268.3517578125,447.988221875L1268.3517578125,446.388221875L1058.7517578125,446.388221875L1058.7517578125,447.988221875ZM1043.6615578125,452.365421875L958.8615188125,597.090421875L960.2419968125,597.899421875L1045.0419578125,453.17432187500003L1043.6615578125,452.365421875ZM1052.8592578125,453.170521875L1159.6597578125,637.765421875L1161.0437578125,636.963421875L1054.2442578125,452.369221875L1052.8592578125,453.170521875Z" fill-rule="evenodd" fill="#FF8C8C" fill-opacity="0.30000001192092896"/></g><g><path d="M769.1515445709229,447.986L1049.551544570923,445.594L909.2835445709229,204C825.5276445709228,252.1389,769.1515445709229,344.696,769.1515445709229,447.986Z" fill="url(#master_svg3_1175_008843)" fill-opacity="0.699999988079071"/></g><g transform="matrix(0.5012284517288208,-0.8653150200843811,0.8667329549789429,0.4987724721431732,-111.348813530818,915.8616283371075)"><path d="M738,769.2572478027344L985.335,768.1982478027344L860.004,553.1602478027344C787.4281,595.0791478027344,738,679.3132478027344,738,769.2572478027344Z" fill="url(#master_svg4_1175_001604)" fill-opacity="0.4000000059604645"/></g><g><path d="M961.5607147216797,293.9689828125L1049.5515147216797,448.7833828125L1137.5427147216797,293.9689828125C1111.6437147216798,279.0835328125,1081.5957147216798,270.5673828125,1049.5515147216797,270.5673828125C1017.5077147216797,270.5673828125,987.4595147216797,279.0835328125,961.5607147216797,293.9689828125Z" fill="url(#master_svg5_1175_008785)" fill-opacity="1"/></g><g transform="matrix(-1,-4.635671757569071e-7,4.635671757569071e-7,-1,2272.666093212404,1245.229042391768)"><path d="M1136.3331909179688,646.0158578125L1224.3239909179688,800.8302578125L1312.3151909179687,646.0158578125C1286.4161909179688,631.1304078125,1256.3681909179688,622.6142578125,1224.3239909179688,622.6142578125C1192.2801909179689,622.6142578125,1162.2319909179687,631.1304078125,1136.3331909179688,646.0158578125Z" fill="url(#master_svg6_1175_008877)" fill-opacity="1"/></g><g><path d="M834.7515258789062,446.390625C834.7515258789062,525.7418250000001,876.0072258789063,593.6046249999999,940.3515258789063,630.587625L1049.1515258789063,446.390625L834.7515258789062,446.390625Z" fill="url(#master_svg7_1175_005771)" fill-opacity="0.10000000149011612"/></g><g><path d="M1173.8703671875,320.6307046875Q1157.4663671875,304.3713046875,1137.7383671875,292.8266046875L1136.5263671875,294.8980046875Q1155.9923671875,306.28950468749997,1172.1803671875,322.3352046875Q1188.4143671875,338.4265046875,1200.0813671875,357.9409046875Q1211.9933671875,377.8666046875,1218.2573671875,399.8963046875Q1224.7513671875,422.7333046875,1224.7513671875,446.3913046875Q1224.7513671875,470.2593046875,1218.4293671875,493.04330468750004Q1212.3003671875,515.1333046875,1200.5953671875,534.9283046875Q1189.0793671874999,554.4023046875,1172.9413671875,570.3603046875Q1156.7983671875,586.3233046875,1137.1663671874999,597.6443046874999L1138.3653671875,599.7233046875Q1158.2653671875,588.2473046875,1174.6293671875,572.0663046875Q1190.9873671875,555.8903046875,1202.6603671875,536.1503046875Q1214.5273671875,516.0813046875,1220.7423671875,493.6853046875Q1227.1513671875,470.5863046875,1227.1513671875,446.3913046875Q1227.1513671875,422.3983046875,1220.5663671875,399.2403046875Q1214.2153671875,376.90610468750003,1202.1413671875,356.7094046875Q1190.3193671875001,336.9350046875,1173.8703671875,320.6307046875ZM925.5748671875,323.0051046875Q941.5395671875,307.0696046875,960.9765671875,295.6953946875L959.7643671875,293.6239876875Q940.0617671875,305.1536046875,923.8793671875,321.3065046875Q907.6957671875,337.4604046875,896.1567671875,357.1163046875Q884.4244671875,377.1014046875,878.2840471875,399.37330468749997Q871.9513671875,422.3433046875,871.9513771875,446.3913046875Q871.9513671875,470.3143046875,878.2196371875,493.1743046875Q884.2981671875,515.3423046875,895.9166671875,535.2563046875Q907.3433671875,554.8403046875001,923.3784671875,570.9743046875001Q939.4101671875,587.1043046875,958.9440671875,598.6753046875L960.1672671875,596.6103046875Q940.8966671875,585.1953046875001,925.0807671875,569.2823046875001Q909.2617671875,553.3663046875,897.9896671875,534.0463046875Q886.5295671875,514.4043046875,880.5341971875,492.5393046875Q874.3513671875,469.9913046875,874.3513771875,446.3913046875Q874.3513771875,422.66830468750004,880.5977271875,400.0113046875Q886.6541671875,378.0441046875,898.2265671875,358.3313046875Q909.6094671875001,338.9412046875,925.5748671875,323.0051046875Z" fill-rule="evenodd" fill="#FF5E5E" fill-opacity="1"/></g><g><path d="M1168.339528930664,325.942046875Q1152.487528930664,310.457546875,1133.380528930664,299.401831875L1132.9805289306641,300.094261875Q1151.999528930664,311.099746875,1167.780528930664,326.514346875Q1183.648528930664,342.014646875,1195.031528930664,360.791846875Q1206.680528930664,380.006846875,1212.799528930664,401.294046875Q1219.151528930664,423.392046875,1219.151528930664,446.39104687500003Q1219.153528930664,469.291046875,1213.138528930664,491.167046875Q1207.307528930664,512.378046875,1196.1635289306641,531.426046875Q1185.2015289306642,550.160046875,1169.825528930664,565.575046875Q1154.4495289306642,580.989046875,1135.722528930664,592.021046875L1136.128528930664,592.711046875Q1154.945528930664,581.625046875,1170.391528930664,566.140046875Q1185.840528930664,550.651046875,1196.854528930664,531.830046875Q1208.051528930664,512.692046875,1213.909528930664,491.379046875Q1219.9515289306642,469.398046875,1219.9515289306642,446.39104687500003Q1219.9515289306642,423.279046875,1213.5685289306641,401.073046875Q1207.418528930664,379.683346875,1195.715528930664,360.377146875Q1184.280528930664,341.513046875,1168.339528930664,325.942046875ZM929.975028930664,326.512346875Q945.5613289306641,311.066246875,964.522728930664,300.094268875L964.1220289306641,299.401839875Q945.071528930664,310.425446875,929.4119289306641,325.944046875Q913.754928930664,341.460046875,902.5849289306641,360.381146875Q891.229228930664,379.617146875,885.283668930664,401.077046875Q879.1515349306641,423.209046875,879.1515289306641,446.39104687500003Q879.1515289306641,469.399046875,885.1934989306641,491.379046875Q891.0522289306641,512.692046875,902.2489289306641,531.830046875Q913.260928930664,550.650046875,928.711128930664,566.140046875Q944.1575289306641,581.625046875,962.9745289306641,592.711046875L963.3806289306641,592.021046875Q944.6516289306641,580.988046875,929.2775289306641,565.575046875Q913.899528930664,550.158046875,902.939428930664,531.426046875Q891.795828930664,512.379046875,885.9648889306641,491.167046875Q879.951528930664,469.291046875,879.951528930664,446.39104687500003Q879.951522930664,423.318046875,886.0546289306641,401.29004687500003Q891.971928930664,379.932646875,903.273928930664,360.787846875Q914.391328930664,341.955646875,929.975028930664,326.512346875Z" fill-rule="evenodd" fill="#FF5E5E" fill-opacity="0.5"/></g><g><g><ellipse cx="1049.5516204833984" cy="446.3909149169922" rx="65.19999694824219" ry="64.98684692382812" fill="url(#master_svg8_1175_77991)" fill-opacity="1"/></g><g><path d="M1003.8313235351562,401.18697268066404Q1009.6545235351563,395.33632268066407,1016.7496235351563,391.1425616806641L1015.9355235351562,389.76518368066405Q1008.6646235351562,394.06286268066407,1002.6972235351562,400.05820268066407Q996.7281235351562,406.0552726806641,992.4743235351563,413.3380726806641Q988.1487435351562,420.7436726806641,985.8855035351562,428.98927268066404Q983.5516255351563,437.4920726806641,983.5516255351563,446.3910726806641Q983.5516235351563,455.2900726806641,985.8855035351562,463.7929726806641Q988.1487135351563,472.03837268066405,992.4743235351563,479.4440726806641Q996.7281235351562,486.72677268066406,1002.6972235351562,492.72387268066404Q1008.6645235351563,498.71887268066405,1015.9355235351562,503.01687268066405L1016.7496235351563,501.6398726806641Q1009.6544235351563,497.4458726806641,1003.8313235351562,491.5948726806641Q998.0064235351563,485.74307268066406,993.8559135351562,478.6371726806641Q989.6361235351562,471.4125726806641,987.4284335351563,463.36947268066405Q985.1516235351562,455.07437268066406,985.1516255351562,446.3910726806641Q985.1516245351562,437.7076726806641,987.4284335351563,429.41277268066403Q989.6361435351563,421.36947268066405,993.8559135351562,414.14507268066404Q998.0065235351562,407.0389726806641,1003.8313235351562,401.18697268066404ZM1096.4056235351563,400.05820268066407Q1090.4386235351562,394.06285268066404,1083.1677235351563,389.76518368066405L1082.3536235351562,391.1425616806641Q1089.4486235351562,395.33631268066404,1095.2716235351563,401.18697268066404Q1101.0966235351561,407.0389726806641,1105.2476235351562,414.14507268066404Q1109.4666235351563,421.36947268066405,1111.6746235351563,429.41277268066403Q1113.9516235351562,437.7076726806641,1113.9516235351562,446.3910726806641Q1113.9516235351562,455.07447268066403,1111.6746235351563,463.36947268066405Q1109.4666235351563,471.4125726806641,1105.2476235351562,478.6371726806641Q1101.0966235351561,485.74307268066406,1095.2716235351563,491.5948726806641Q1089.4486235351562,497.4458726806641,1082.3536235351562,501.6398726806641L1083.1677235351563,503.01687268066405Q1090.4386235351562,498.71887268066405,1096.4056235351563,492.72387268066404Q1102.3756235351561,486.72677268066406,1106.6286235351563,479.4440726806641Q1110.9546235351563,472.0382726806641,1113.2176235351562,463.7929726806641Q1115.5516235351563,455.28977268066404,1115.5516235351563,446.3910726806641Q1115.5516235351563,437.49237268066406,1113.2176235351562,428.98927268066404Q1110.9546235351563,420.7438726806641,1106.6286235351563,413.3380726806641Q1102.3756235351561,406.0552726806641,1096.4056235351563,400.05820268066407Z" fill-rule="evenodd" fill="#FF5E5E" fill-opacity="1"/></g></g><g><g><ellipse cx="1049.5515823364258" cy="446.39093017578125" rx="101.99999237060547" ry="101.66653442382812" fill="url(#master_svg9_1175_80378)" fill-opacity="1"/></g><g><path d="M976.7826899658203,518.7664738769531Q986.1415899658203,528.1154738769532,997.5370899658203,534.7914738769531L998.3458899658203,533.4104738769531Q987.1271899658203,526.8384738769531,977.9134899658203,517.6344738769532Q968.6991899658203,508.4304738769531,962.1298899658203,497.23447387695313Q955.4513599658203,485.85147387695315,951.9562699658203,473.16847387695316Q948.3515929658203,460.0864738769531,948.3515899658203,446.39027387695313Q948.3515899658203,432.69347387695314,951.9562699658203,419.6124738769531Q955.4513899658203,406.92897387695314,962.1298899658203,395.54627387695314Q968.6990899658203,384.3497738769531,977.9134899658203,375.1455738769531Q987.1271899658203,365.9420138769531,998.3458899658203,359.36973687695314L997.5370899658203,357.98919587695315Q986.1415899658203,364.6651338769531,976.7826899658203,374.0135738769531Q967.4230899658203,383.3629738769531,960.7498899658203,394.7365738769531Q953.9648399658203,406.3009738769531,950.4137599658203,419.18737387695313Q946.7515899658204,432.4770738769531,946.7515899658204,446.39027387695313Q946.7515909658204,460.30347387695315,950.4137599658203,473.5934738769531Q953.9647999658204,486.47947387695314,960.7498899658203,498.04347387695316Q967.4231899658203,509.4174738769531,976.7826899658203,518.7664738769531ZM1121.1895899658202,517.6344738769532Q1111.9765899658203,526.8384738769531,1100.7575899658202,533.4104738769531L1101.5655899658204,534.7914738769531Q1112.9615899658204,528.1154738769532,1122.3205899658203,518.7664738769531Q1131.6795899658202,509.41847387695316,1138.3535899658202,498.04447387695313Q1145.1385899658203,486.47947387695314,1148.6895899658202,473.5934738769531Q1152.3515899658203,460.30347387695315,1152.3515899658203,446.39027387695313Q1152.3515899658203,432.4774738769531,1148.6895899658202,419.18737387695313Q1145.1385899658203,406.30077387695314,1138.3535899658202,394.7365738769531Q1131.6795899658202,383.36287387695313,1122.3205899658203,374.0135738769531Q1112.9615899658204,364.6650438769531,1101.5655899658204,357.98921787695315L1100.7575899658202,359.36975987695314Q1111.9755899658203,365.9419538769531,1121.1895899658202,375.1455738769531Q1130.4035899658204,384.34967387695315,1136.9735899658203,395.54627387695314Q1143.6515899658202,406.92897387695314,1147.1465899658203,419.6124738769531Q1150.7515899658204,432.6937738769531,1150.7515899658204,446.39027387695313Q1150.7515899658204,460.0864738769531,1147.1465899658203,473.16847387695316Q1143.6515899658202,485.85147387695315,1136.9735899658203,497.23447387695313Q1130.4035899658204,508.4304738769531,1121.1895899658202,517.6344738769532Z" fill-rule="evenodd" fill="#FF5E5E" fill-opacity="1"/></g></g><g><path d="M932.2456469306641,243.45772575L1047.8455289306642,445.19646875L1046.457528930664,445.99146874999997L930.8574109306641,244.25321175L932.2456469306641,243.45772575Z" fill-rule="evenodd" fill="#FF8C8C" fill-opacity="1"/></g><g><path d="M946.75146484375,447.591015625L985.55146484375,447.591015625L985.55146484375,445.991015625L946.75146484375,445.991015625L946.75146484375,447.591015625ZM1153.15146484375,445.991015625L1050.35146484375,445.991015625L1050.35146484375,447.591015625L1153.15146484375,447.591015625L1153.15146484375,445.991015625Z" fill-rule="evenodd" fill="#FF8C8C" fill-opacity="1"/></g><g><path d="M1137.4982625,293.09405625L1048.6982465,447.38753125L1048.0048785,446.98853125L1136.8048625,292.69500625L1137.4982625,293.09405625Z" fill-rule="evenodd" fill="#FF8C8C" fill-opacity="1"/></g><g><g filter="url(#master_svga_1175_007586/1175_007583)"><rect x="993.1516418457031" y="529.7191467285156" width="8" height="7.973845958709717" rx="3.9869229793548584" fill="#FF0B08" fill-opacity="1"/></g><g filter="url(#master_svgb_1175_007586/1175_007582)"><rect x="993.1516418457031" y="529.7191467285156" width="8" height="7.973845958709717" rx="3.9869229793548584" fill="#FF4946" fill-opacity="1"/></g><g><rect x="993.9516906738281" y="530.5169982910156" width="6.66666841506958" height="6.644871711730957" rx="3.3224358558654785" fill="#F7BEBE" fill-opacity="1"/></g></g><g><g filter="url(#master_svgc_1175_007586/1175_007550)"><rect x="943.5515594482422" y="442.0060729980469" width="8" height="7.973845958709717" rx="3.9869229793548584" fill="#FF0B08" fill-opacity="1"/></g><g filter="url(#master_svgd_1175_007586/1175_007549)"><rect x="943.5515594482422" y="442.0060729980469" width="8" height="7.973845958709717" rx="3.9869229793548584" fill="#FF4946" fill-opacity="1"/></g><g><rect x="944.3516082763672" y="442.8039245605469" width="6.66666841506958" height="6.644871711730957" rx="3.3224358558654785" fill="#F7BEBE" fill-opacity="1"/></g></g><g><g filter="url(#master_svge_1175_007586/1175_007538)"><rect x="1156.3514709472656" y="633.3791198730469" width="5.599999904632568" height="5.581692695617676" rx="2.790846347808838" fill="#FF0B08" fill-opacity="1"/></g><g filter="url(#master_svgf_1175_007586/1175_007539)"><rect x="1156.3514709472656" y="633.3791198730469" width="5.599999904632568" height="5.581692695617676" rx="2.790846347808838" fill="#FF4946" fill-opacity="1"/></g><g><rect x="1156.9115295410156" y="633.9377136230469" width="4.666667938232422" height="4.6514105796813965" rx="2.3257052898406982" fill="#F7BEBE" fill-opacity="1"/></g></g><g><g filter="url(#master_svgg_1175_007586/1175_007559)"><rect x="821.1512680053711" y="444.3982391357422" width="5.599999904632568" height="5.581692695617676" rx="2.790846347808838" fill="#FF0B08" fill-opacity="1"/></g><g filter="url(#master_svgh_1175_007586/1175_007561)"><rect x="821.1512680053711" y="444.3982391357422" width="5.599999904632568" height="5.581692695617676" rx="2.790846347808838" fill="#FF4946" fill-opacity="1"/></g><g><rect x="821.7113265991211" y="444.9558563232422" width="4.666667938232422" height="4.6514105796813965" rx="2.3257052898406982" fill="#F7BEBE" fill-opacity="1"/></g></g><g><g filter="url(#master_svgi_1175_007586/1175_007569)"><rect x="994.7515563964844" y="356.6859130859375" width="4.799999713897705" height="4.784307956695557" rx="2.3921539783477783" fill="#FF0B08" fill-opacity="1"/></g><g filter="url(#master_svgj_1175_007586/1175_007568)"><rect x="994.7515563964844" y="356.6859130859375" width="4.799999713897705" height="4.784307956695557" rx="2.3921539783477783" fill="#FF0400" fill-opacity="1"/></g><g><rect x="995.2315563559532" y="357.164343893528" width="4.000001430511475" height="3.9869232177734375" rx="1.9934616088867188" fill="#FFD1D1" fill-opacity="1"/></g></g><g><g filter="url(#master_svgk_1175_007586/1175_007555)"><rect x="1268.3516845703125" y="444.3990020751953" width="5.599999904632568" height="5.581692695617676" rx="2.790846347808838" fill="#FF0B08" fill-opacity="1"/></g><g filter="url(#master_svgl_1175_007586/1175_007553)"><rect x="1268.3516845703125" y="444.3990020751953" width="5.599999904632568" height="5.581692695617676" rx="2.790846347808838" fill="#FF4946" fill-opacity="1"/></g><g><rect x="1268.9116846323013" y="444.9566192626953" width="4.666667938232422" height="4.6514105796813965" rx="2.3257052898406982" fill="#F7BEBE" fill-opacity="1"/></g></g><g><path d="M825.5501380882422,445.9903871152344L1049.950559448242,445.59169411523436L1049.9525594482423,447.1916921152344L825.5529808082422,447.5903831152344L825.5501380882422,445.9903871152344Z" fill-rule="evenodd" fill="#FF8C8C" fill-opacity="0.30000001192092896"/></g><g transform="matrix(-0.4860248267650604,0.8739449977874756,-0.8752913475036621,-0.4835960268974304,2354.4489212724584,-731.8896540504065)"><path d="M1391.98681640625,571.2571796875L1664.32181640625,566.2071796875L1531.76781640625,326.6591796875C1448.22201640625,374.9188796875,1391.98681640625,467.7081796875,1391.98681640625,571.2571796875Z" fill="url(#master_svgm_1175_008735)" fill-opacity="0.699999988079071"/></g><g transform="matrix(-0.5162778496742249,-0.856421172618866,-0.8579102754592896,0.5137994885444641,2561.8381833543535,1447.886234424077)"><path d="M1373.81640625,783.72896875L1633.13240625,777.62996875L1501.39340625,558.04296875C1425.79210625,602.09266875,1373.81640625,689.21396875,1373.81640625,783.72896875Z" fill="url(#master_svgn_1175_008823)" fill-opacity="1"/></g><g><g filter="url(#master_svgo_1175_007586/1175_007566)"><rect x="1093.1515502929688" y="352.69898986816406" width="9.59999942779541" height="9.568615913391113" rx="4.784307956695557" fill="#FF0B08" fill-opacity="1"/></g><g filter="url(#master_svgp_1175_007586/1175_007564)"><rect x="1093.1515502929688" y="352.69898986816406" width="9.59999942779541" height="9.568615913391113" rx="4.784307956695557" fill="#FF4946" fill-opacity="1"/></g><g><rect x="1094.1115503311157" y="353.65602111816406" width="8.00000286102295" height="7.973848342895508" rx="3.986924171447754" fill="#F7BEBE" fill-opacity="1"/></g></g><g><g filter="url(#master_svgq_1175_007586/1175_007533)"><rect x="936.3515625" y="255.4180679321289" width="9.59999942779541" height="9.568615913391113" rx="4.784307956695557" fill="#FF0B08" fill-opacity="1"/></g><g filter="url(#master_svgr_1175_007586/1175_007534)"><rect x="936.3515625" y="255.4180679321289" width="9.59999942779541" height="9.568615913391113" rx="4.784307956695557" fill="#FF4946" fill-opacity="1"/></g><g><rect x="937.3115234375" y="256.3750991821289" width="8.00000286102295" height="7.973848342895508" rx="3.986924171447754" fill="#F7BEBE" fill-opacity="1"/></g></g></g><g style="opacity:0.5;"><g><path d="M1049.0478578125,447.582421875L1099.8477578125,357.876636875L1098.4557578125,357.088206875L1047.6556578125,446.794021875L1049.0478578125,447.582421875ZM1058.7517578125,447.988221875L1268.3517578125,447.988221875L1268.3517578125,446.388221875L1058.7517578125,446.388221875L1058.7517578125,447.988221875ZM1043.6615578125,452.365421875L958.8615188125,597.090421875L960.2419968125,597.899421875L1045.0419578125,453.17432187500003L1043.6615578125,452.365421875ZM1052.8592578125,453.170521875L1159.6597578125,637.765421875L1161.0437578125,636.963421875L1054.2442578125,452.369221875L1052.8592578125,453.170521875Z" fill-rule="evenodd" fill="#FF8C8C" fill-opacity="0.30000001192092896"/></g><g style="opacity:0.699999988079071;"><path d="M769.1515445709229,447.986L1049.551544570923,445.594L909.2835445709229,204C825.5276445709228,252.1389,769.1515445709229,344.696,769.1515445709229,447.986Z" fill="url(#master_svgs_1175_008843)" fill-opacity="0.699999988079071"/></g><g transform="matrix(0.5012284517288208,-0.8653150200843811,0.8667329549789429,0.4987724721431732,-111.348813530818,915.8616283371075)"><path d="M738,769.2572478027344L985.335,768.1982478027344L860.004,553.1602478027344C787.4281,595.0791478027344,738,679.3132478027344,738,769.2572478027344Z" fill="url(#master_svgt_1175_001604)" fill-opacity="0.4000000059604645"/></g><g><path d="M961.5607147216797,293.9689828125L1049.5515147216797,448.7833828125L1137.5427147216797,293.9689828125C1111.6437147216798,279.0835328125,1081.5957147216798,270.5673828125,1049.5515147216797,270.5673828125C1017.5077147216797,270.5673828125,987.4595147216797,279.0835328125,961.5607147216797,293.9689828125Z" fill="url(#master_svgu_1175_008785)" fill-opacity="1"/></g><g transform="matrix(-1,-4.635671757569071e-7,4.635671757569071e-7,-1,2272.666093212404,1245.229042391768)"><path d="M1136.3331909179688,646.0158578125L1224.3239909179688,800.8302578125L1312.3151909179687,646.0158578125C1286.4161909179688,631.1304078125,1256.3681909179688,622.6142578125,1224.3239909179688,622.6142578125C1192.2801909179689,622.6142578125,1162.2319909179687,631.1304078125,1136.3331909179688,646.0158578125Z" fill="url(#master_svgv_1175_008877)" fill-opacity="1"/></g><g><path d="M834.7515258789062,446.390625C834.7515258789062,525.7418250000001,876.0072258789063,593.6046249999999,940.3515258789063,630.587625L1049.1515258789063,446.390625L834.7515258789062,446.390625Z" fill="url(#master_svgw_1175_005771)" fill-opacity="0.10000000149011612"/></g><g><path d="M1168.339528930664,325.942046875Q1152.487528930664,310.457546875,1133.380528930664,299.401831875L1132.9805289306641,300.094261875Q1151.999528930664,311.099746875,1167.780528930664,326.514346875Q1183.648528930664,342.014646875,1195.031528930664,360.791846875Q1206.680528930664,380.006846875,1212.799528930664,401.294046875Q1219.151528930664,423.392046875,1219.151528930664,446.39104687500003Q1219.153528930664,469.291046875,1213.138528930664,491.167046875Q1207.307528930664,512.378046875,1196.1635289306641,531.426046875Q1185.2015289306642,550.160046875,1169.825528930664,565.575046875Q1154.4495289306642,580.989046875,1135.722528930664,592.021046875L1136.128528930664,592.711046875Q1154.945528930664,581.625046875,1170.391528930664,566.140046875Q1185.840528930664,550.651046875,1196.854528930664,531.830046875Q1208.051528930664,512.692046875,1213.909528930664,491.379046875Q1219.9515289306642,469.398046875,1219.9515289306642,446.39104687500003Q1219.9515289306642,423.279046875,1213.5685289306641,401.073046875Q1207.418528930664,379.683346875,1195.715528930664,360.377146875Q1184.280528930664,341.513046875,1168.339528930664,325.942046875ZM929.975028930664,326.512346875Q945.5613289306641,311.066246875,964.522728930664,300.094268875L964.1220289306641,299.401839875Q945.071528930664,310.425446875,929.4119289306641,325.944046875Q913.754928930664,341.460046875,902.5849289306641,360.381146875Q891.229228930664,379.617146875,885.283668930664,401.077046875Q879.1515349306641,423.209046875,879.1515289306641,446.39104687500003Q879.1515289306641,469.399046875,885.1934989306641,491.379046875Q891.0522289306641,512.692046875,902.2489289306641,531.830046875Q913.260928930664,550.650046875,928.711128930664,566.140046875Q944.1575289306641,581.625046875,962.9745289306641,592.711046875L963.3806289306641,592.021046875Q944.6516289306641,580.988046875,929.2775289306641,565.575046875Q913.899528930664,550.158046875,902.939428930664,531.426046875Q891.795828930664,512.379046875,885.9648889306641,491.167046875Q879.951528930664,469.291046875,879.951528930664,446.39104687500003Q879.951522930664,423.318046875,886.0546289306641,401.29004687500003Q891.971928930664,379.932646875,903.273928930664,360.787846875Q914.391328930664,341.955646875,929.975028930664,326.512346875Z" fill-rule="evenodd" fill="#FF5E5E" fill-opacity="0.5"/></g><g><g><ellipse cx="1049.5516204833984" cy="446.3909149169922" rx="65.19999694824219" ry="64.98684692382812" fill="url(#master_svgx_1175_77991)" fill-opacity="1"/></g><g><path d="M1003.8313235351562,401.18697268066404Q1009.6545235351563,395.33632268066407,1016.7496235351563,391.1425616806641L1015.9355235351562,389.76518368066405Q1008.6646235351562,394.06286268066407,1002.6972235351562,400.05820268066407Q996.7281235351562,406.0552726806641,992.4743235351563,413.3380726806641Q988.1487435351562,420.7436726806641,985.8855035351562,428.98927268066404Q983.5516255351563,437.4920726806641,983.5516255351563,446.3910726806641Q983.5516235351563,455.2900726806641,985.8855035351562,463.7929726806641Q988.1487135351563,472.03837268066405,992.4743235351563,479.4440726806641Q996.7281235351562,486.72677268066406,1002.6972235351562,492.72387268066404Q1008.6645235351563,498.71887268066405,1015.9355235351562,503.01687268066405L1016.7496235351563,501.6398726806641Q1009.6544235351563,497.4458726806641,1003.8313235351562,491.5948726806641Q998.0064235351563,485.74307268066406,993.8559135351562,478.6371726806641Q989.6361235351562,471.4125726806641,987.4284335351563,463.36947268066405Q985.1516235351562,455.07437268066406,985.1516255351562,446.3910726806641Q985.1516245351562,437.7076726806641,987.4284335351563,429.41277268066403Q989.6361435351563,421.36947268066405,993.8559135351562,414.14507268066404Q998.0065235351562,407.0389726806641,1003.8313235351562,401.18697268066404ZM1096.4056235351563,400.05820268066407Q1090.4386235351562,394.06285268066404,1083.1677235351563,389.76518368066405L1082.3536235351562,391.1425616806641Q1089.4486235351562,395.33631268066404,1095.2716235351563,401.18697268066404Q1101.0966235351561,407.0389726806641,1105.2476235351562,414.14507268066404Q1109.4666235351563,421.36947268066405,1111.6746235351563,429.41277268066403Q1113.9516235351562,437.7076726806641,1113.9516235351562,446.3910726806641Q1113.9516235351562,455.07447268066403,1111.6746235351563,463.36947268066405Q1109.4666235351563,471.4125726806641,1105.2476235351562,478.6371726806641Q1101.0966235351561,485.74307268066406,1095.2716235351563,491.5948726806641Q1089.4486235351562,497.4458726806641,1082.3536235351562,501.6398726806641L1083.1677235351563,503.01687268066405Q1090.4386235351562,498.71887268066405,1096.4056235351563,492.72387268066404Q1102.3756235351561,486.72677268066406,1106.6286235351563,479.4440726806641Q1110.9546235351563,472.0382726806641,1113.2176235351562,463.7929726806641Q1115.5516235351563,455.28977268066404,1115.5516235351563,446.3910726806641Q1115.5516235351563,437.49237268066406,1113.2176235351562,428.98927268066404Q1110.9546235351563,420.7438726806641,1106.6286235351563,413.3380726806641Q1102.3756235351561,406.0552726806641,1096.4056235351563,400.05820268066407Z" fill-rule="evenodd" fill="#FF5E5E" fill-opacity="1"/></g></g><g><g><ellipse cx="1049.5515823364258" cy="446.39093017578125" rx="101.99999237060547" ry="101.66653442382812" fill="url(#master_svgy_1175_80378)" fill-opacity="1"/></g><g><path d="M976.7826899658203,518.7664738769531Q986.1415899658203,528.1154738769532,997.5370899658203,534.7914738769531L998.3458899658203,533.4104738769531Q987.1271899658203,526.8384738769531,977.9134899658203,517.6344738769532Q968.6991899658203,508.4304738769531,962.1298899658203,497.23447387695313Q955.4513599658203,485.85147387695315,951.9562699658203,473.16847387695316Q948.3515929658203,460.0864738769531,948.3515899658203,446.39027387695313Q948.3515899658203,432.69347387695314,951.9562699658203,419.6124738769531Q955.4513899658203,406.92897387695314,962.1298899658203,395.54627387695314Q968.6990899658203,384.3497738769531,977.9134899658203,375.1455738769531Q987.1271899658203,365.9420138769531,998.3458899658203,359.36973687695314L997.5370899658203,357.98919587695315Q986.1415899658203,364.6651338769531,976.7826899658203,374.0135738769531Q967.4230899658203,383.3629738769531,960.7498899658203,394.7365738769531Q953.9648399658203,406.3009738769531,950.4137599658203,419.18737387695313Q946.7515899658204,432.4770738769531,946.7515899658204,446.39027387695313Q946.7515909658204,460.30347387695315,950.4137599658203,473.5934738769531Q953.9647999658204,486.47947387695314,960.7498899658203,498.04347387695316Q967.4231899658203,509.4174738769531,976.7826899658203,518.7664738769531ZM1121.1895899658202,517.6344738769532Q1111.9765899658203,526.8384738769531,1100.7575899658202,533.4104738769531L1101.5655899658204,534.7914738769531Q1112.9615899658204,528.1154738769532,1122.3205899658203,518.7664738769531Q1131.6795899658202,509.41847387695316,1138.3535899658202,498.04447387695313Q1145.1385899658203,486.47947387695314,1148.6895899658202,473.5934738769531Q1152.3515899658203,460.30347387695315,1152.3515899658203,446.39027387695313Q1152.3515899658203,432.4774738769531,1148.6895899658202,419.18737387695313Q1145.1385899658203,406.30077387695314,1138.3535899658202,394.7365738769531Q1131.6795899658202,383.36287387695313,1122.3205899658203,374.0135738769531Q1112.9615899658204,364.6650438769531,1101.5655899658204,357.98921787695315L1100.7575899658202,359.36975987695314Q1111.9755899658203,365.9419538769531,1121.1895899658202,375.1455738769531Q1130.4035899658204,384.34967387695315,1136.9735899658203,395.54627387695314Q1143.6515899658202,406.92897387695314,1147.1465899658203,419.6124738769531Q1150.7515899658204,432.6937738769531,1150.7515899658204,446.39027387695313Q1150.7515899658204,460.0864738769531,1147.1465899658203,473.16847387695316Q1143.6515899658202,485.85147387695315,1136.9735899658203,497.23447387695313Q1130.4035899658204,508.4304738769531,1121.1895899658202,517.6344738769532Z" fill-rule="evenodd" fill="#FF5E5E" fill-opacity="1"/></g></g><g><path d="M932.2456469306641,243.45772575L1047.8455289306642,445.19646875L1046.457528930664,445.99146874999997L930.8574109306641,244.25321175L932.2456469306641,243.45772575Z" fill-rule="evenodd" fill="#FF8C8C" fill-opacity="1"/></g><g><path d="M946.75146484375,447.591015625L985.55146484375,447.591015625L985.55146484375,445.991015625L946.75146484375,445.991015625L946.75146484375,447.591015625ZM1153.15146484375,445.991015625L1050.35146484375,445.991015625L1050.35146484375,447.591015625L1153.15146484375,447.591015625L1153.15146484375,445.991015625Z" fill-rule="evenodd" fill="#FF8C8C" fill-opacity="1"/></g><g><path d="M1137.4983235351563,293.09405625L1048.6983075351563,447.38753125L1048.0049395351562,446.98853125L1136.8049235351561,292.69500625L1137.4983235351563,293.09405625Z" fill-rule="evenodd" fill="#FF8C8C" fill-opacity="1"/></g><g><g filter="url(#master_svgz_1175_007586/1175_008987)"><rect x="993.1516418457031" y="529.7191467285156" width="8" height="7.973845481872559" rx="3.9869227409362793" fill="#FF0B08" fill-opacity="1"/></g><g filter="url(#master_svg10_1175_007586/1175_008985)"><rect x="993.1516418457031" y="529.7191467285156" width="8" height="7.973845481872559" rx="3.9869227409362793" fill="#FF4946" fill-opacity="1"/></g><g><rect x="993.9516906738281" y="530.5169982910156" width="6.66666841506958" height="6.644872188568115" rx="3.3224360942840576" fill="#F7BEBE" fill-opacity="1"/></g></g><g><g filter="url(#master_svg11_1175_007586/1175_008952)"><rect x="943.5515594482422" y="442.0060729980469" width="8" height="7.973845958709717" rx="3.9869229793548584" fill="#FF0B08" fill-opacity="1"/></g><g filter="url(#master_svg12_1175_007586/1175_008953)"><rect x="943.5515594482422" y="442.0060729980469" width="8" height="7.973845958709717" rx="3.9869229793548584" fill="#FF4946" fill-opacity="1"/></g><g><rect x="944.3515595197678" y="442.8039245605469" width="6.66666841506958" height="6.644871711730957" rx="3.3224358558654785" fill="#F7BEBE" fill-opacity="1"/></g></g><g><g filter="url(#master_svg13_1175_007586/1175_008948)"><rect x="1156.3514709472656" y="633.3791198730469" width="5.599999904632568" height="5.581692695617676" rx="2.790846347808838" fill="#FF0B08" fill-opacity="1"/></g><g filter="url(#master_svg14_1175_007586/1175_008946)"><rect x="1156.3514709472656" y="633.3791198730469" width="5.599999904632568" height="5.581692695617676" rx="2.790846347808838" fill="#FF4946" fill-opacity="1"/></g><g><rect x="1156.9115295410156" y="633.9377136230469" width="4.666667938232422" height="4.6514105796813965" rx="2.3257052898406982" fill="#F7BEBE" fill-opacity="1"/></g></g><g><g filter="url(#master_svg15_1175_007586/1175_008941)"><rect x="821.1512680053711" y="444.3982391357422" width="5.599999904632568" height="5.581692695617676" rx="2.790846347808838" fill="#FF0B08" fill-opacity="1"/></g><g filter="url(#master_svg16_1175_007586/1175_008940)"><rect x="821.1512680053711" y="444.3982391357422" width="5.599999904632568" height="5.581692695617676" rx="2.790846347808838" fill="#FF4946" fill-opacity="1"/></g><g><rect x="821.7113265991211" y="444.9558563232422" width="4.666667938232422" height="4.6514105796813965" rx="2.3257052898406982" fill="#F7BEBE" fill-opacity="1"/></g></g><g><g filter="url(#master_svg17_1175_007586/1175_008967)"><rect x="994.7515563964844" y="356.6859130859375" width="4.799999713897705" height="4.784307956695557" rx="2.3921539783477783" fill="#FF0B08" fill-opacity="1"/></g><g filter="url(#master_svg18_1175_007586/1175_008966)"><rect x="994.7515563964844" y="356.6859130859375" width="4.799999713897705" height="4.784307956695557" rx="2.3921539783477783" fill="#FF0400" fill-opacity="1"/></g><g><rect x="995.2315563559532" y="357.164343893528" width="4.000001430511475" height="3.9869232177734375" rx="1.9934616088867188" fill="#FFD1D1" fill-opacity="1"/></g></g><g><g filter="url(#master_svg19_1175_007586/1175_008957)"><rect x="1268.3516845703125" y="444.3990020751953" width="5.599999904632568" height="5.581692695617676" rx="2.790846347808838" fill="#FF0B08" fill-opacity="1"/></g><g filter="url(#master_svg1a_1175_007586/1175_008958)"><rect x="1268.3516845703125" y="444.3990020751953" width="5.599999904632568" height="5.581692695617676" rx="2.790846347808838" fill="#FF4946" fill-opacity="1"/></g><g><rect x="1268.9116846323013" y="444.9566192626953" width="4.666667938232422" height="4.6514105796813965" rx="2.3257052898406982" fill="#F7BEBE" fill-opacity="1"/></g></g><g><path d="M825.5501380882422,445.9903871152344L1049.950559448242,445.59169411523436L1049.9525594482423,447.1916921152344L825.5529808082422,447.5903831152344L825.5501380882422,445.9903871152344Z" fill-rule="evenodd" fill="#FF8C8C" fill-opacity="0.30000001192092896"/></g><g transform="matrix(-0.5162778496742249,-0.856421172618866,-0.8579102754592896,0.5137994885444641,2561.8381833543535,1447.886234424077)" style="opacity:0.5;"><path d="M1373.81640625,783.72896875L1633.13240625,777.62996875L1501.39340625,558.04296875C1425.79210625,602.09266875,1373.81640625,689.21396875,1373.81640625,783.72896875Z" fill="url(#master_svg1b_1175_008823)" fill-opacity="1"/></g><g><g filter="url(#master_svg1c_1175_007586/1175_008976)"><rect x="1093.1515502929688" y="352.69898986816406" width="9.59999942779541" height="9.568615913391113" rx="4.784307956695557" fill="#FF0B08" fill-opacity="1"/></g><g filter="url(#master_svg1d_1175_007586/1175_008977)"><rect x="1093.1515502929688" y="352.69898986816406" width="9.59999942779541" height="9.568615913391113" rx="4.784307956695557" fill="#FF4946" fill-opacity="1"/></g><g><rect x="1094.1115503311157" y="353.65602111816406" width="8.00000286102295" height="7.973848342895508" rx="3.986924171447754" fill="#F7BEBE" fill-opacity="1"/></g></g><g><g filter="url(#master_svg1e_1175_007586/1175_008961)"><rect x="936.3515625" y="255.4180679321289" width="9.59999942779541" height="9.568615913391113" rx="4.784307956695557" fill="#FF0B08" fill-opacity="1"/></g><g filter="url(#master_svg1f_1175_007586/1175_008963)"><rect x="936.3515625" y="255.4180679321289" width="9.59999942779541" height="9.568615913391113" rx="4.784307956695557" fill="#FF4946" fill-opacity="1"/></g><g><rect x="937.311562538147" y="256.3750991821289" width="8.00000286102295" height="7.973848342895508" rx="3.986924171447754" fill="#F7BEBE" fill-opacity="1"/></g></g></g><g><g filter="url(#master_svg1g_1175_007586/1175_007576)"><rect x="1034" y="431" width="29" height="29" rx="14.5" fill="#FC6D6B" fill-opacity="1"/></g><g><rect x="1036.89990234375" y="433.900390625" width="24.166667938232422" height="24.16666603088379" rx="12.083333015441895" fill="#FFC2C2" fill-opacity="1"/></g></g></g></g></g></svg>